/* XPM */
static char *f864d9527e6e43fccbedb291d2301b76kcIErjiumy5ydbMU[] = {
/* columns rows colors chars-per-pixel */
"16 16 3 1 ",
"  c #3D253B",
". c #362030",
"X c white",
/* pixels */
"               .",
"               .",
"               .",
"               .",
"        . .. ...",
"                ",
"                ",
"                ",
"                ",
"                ",
"                ",
"                ",
"                ",
"                ",
"                ",
"..... .         "
};
